<svg width="74" height="60" viewBox="0 0 74 60" fill="none" xmlns="http://www.w3.org/2000/svg">
<path d="M3.77027 48.2026L0.449219 59.8369H1.59922L2.42554 56.8842H6.63344L7.45975 59.8369H8.61238L5.29133 48.2026H3.77027ZM4.52291 49.3711L6.35449 55.9237H2.69133L4.52291 49.3711Z" fill="#191919"/>
<path d="M13.5571 48.0264H12.5229V57.6237L12.436 59.8369H13.2913L13.4387 58.7737C13.8518 59.4527 14.5755 60.0001 15.7702 60.0001C17.9124 60.0001 18.7676 58.2711 18.7676 56.1027V55.7474C18.7676 53.5764 17.9124 51.8501 15.7702 51.8501C14.6781 51.8501 13.9702 52.3237 13.5571 52.9132V48.0264ZM13.5571 53.9895C13.8676 53.4737 14.4729 52.779 15.536 52.779C17.0124 52.779 17.7045 53.9316 17.7045 55.7474V56.1027C17.7045 57.9185 17.0124 59.0685 15.536 59.0685C14.4729 59.0685 13.8676 58.3764 13.5571 57.858V53.9895Z" fill="#191919"/>
<path d="M25.8389 59.1291C24.2889 59.1291 23.8599 58.3027 23.8599 57.4448H22.8284V57.5054C22.8284 58.7001 23.6257 60.0001 25.8389 60.0001C27.7731 60.0001 28.8521 59.0554 28.8521 57.6975V57.6238C28.8521 56.1896 28.01 55.629 26.0468 55.4659C24.3494 55.3343 23.9652 54.8922 23.9652 54.079C23.9652 53.208 24.6573 52.7212 25.8389 52.7212C27.3021 52.7212 27.7442 53.4159 27.7442 54.5369H28.7626V54.479C28.7626 52.9422 27.981 51.8501 25.8389 51.8501C24.0099 51.8501 22.931 52.7212 22.931 54.079V54.1685C22.931 55.3343 23.5363 56.0712 25.6468 56.2501C27.1678 56.3817 27.7889 56.6343 27.7889 57.6975C27.7889 58.5685 27.11 59.1291 25.8389 59.1291Z" fill="#191919"/>
<path d="M34.9326 52.0132V49.7974H33.8984V52.0132H32.6589V52.9421H33.8984V57.6658C33.8984 59.3632 34.8589 60 36.1879 60C36.8063 60 37.1616 59.8816 37.28 59.8368V58.9368C37.1616 58.9947 36.7616 59.0684 36.4379 59.0684C35.4484 59.0684 34.9326 58.7737 34.9326 57.5342V52.9421H37.4274V52.0132H34.9326Z" fill="#191919"/>
<path d="M44.6895 51.8501C43.6422 51.8501 42.9185 52.3975 42.5053 53.0448L42.358 52.0133H41.5027L41.5895 54.2264V59.8369H42.6237V54.0343C42.9474 53.5185 43.5237 52.8527 44.7053 52.8527H44.9106V51.8659C44.8974 51.8659 44.7948 51.8501 44.6895 51.8501Z" fill="#191919"/>
<path d="M53.8891 59.8369H54.7443L54.6548 57.6238V54.758C54.6548 53.0317 53.9917 51.8501 51.8206 51.8501C49.518 51.8501 49.0022 53.2817 49.0022 54.4633V54.5948H49.9917C49.9917 53.5764 50.3312 52.7212 51.8075 52.7212C53.1943 52.7212 53.6233 53.4159 53.6233 54.758V54.9659L51.2601 55.3343C49.9917 55.5264 48.7048 56.0133 48.7048 57.7106V57.858C48.7048 59.1133 49.5338 60.0001 50.9654 60.0001C52.3233 60.0001 53.2075 59.4238 53.7259 58.7448L53.8891 59.8369ZM51.2312 59.1001C50.1812 59.1001 49.739 58.4633 49.739 57.7712V57.6369C49.739 56.7527 50.3443 56.2633 51.3496 56.0869L53.6233 55.7185V57.858C53.3417 58.3159 52.6785 59.1001 51.2312 59.1001Z" fill="#191919"/>
<path d="M59.8801 56.1027V55.7475C59.8801 53.9606 60.5591 52.779 62.1091 52.779C63.5275 52.779 64.1038 53.6817 64.1038 54.8764H65.0933V54.5817C65.0933 53.3106 64.2512 51.8501 62.0959 51.8501C59.8064 51.8501 58.8328 53.5764 58.8328 55.7475V56.1027C58.8328 58.2712 59.8064 60.0001 62.0959 60.0001C64.2512 60.0001 65.0933 58.5975 65.0933 57.358V57.1212H64.1038C64.1038 58.1396 63.5722 59.0685 62.1091 59.0685C60.5591 59.0685 59.8801 57.8869 59.8801 56.1027Z" fill="#191919"/>
<path d="M71.0562 52.0132V49.7974H70.0219V52.0132H68.7825V52.9421H70.0219V57.6658C70.0219 59.3632 70.9825 60 72.3114 60C72.9298 60 73.2851 59.8816 73.4035 59.8368V58.9368C73.2851 58.9947 72.8851 59.0684 72.5614 59.0684C71.5719 59.0684 71.0562 58.7737 71.0562 57.5342V52.9421H73.5509V52.0132H71.0562Z" fill="#191919"/>
<path d="M53.1533 32.8369H54.1586V33.8395H53.1533V32.8369Z" fill="#191919"/>
<path d="M20.3191 1.01611H21.3349V32.8372H20.3191V1.01611Z" fill="#191919"/>
<path d="M20.3191 32.8369H21.3349V33.8395H20.3191V32.8369Z" fill="#191919"/>
<path d="M53.1533 1.01611H54.1586V32.8372H53.1533V1.01611Z" fill="#191919"/>
<path d="M21.3347 32.8369H53.1532V33.8395H21.3347V32.8369Z" fill="#191919"/>
<path d="M53.1533 0H54.1586V1.01579H53.1533V0Z" fill="#191919"/>
<path d="M20.3191 0H21.3349V1.01579H20.3191V0Z" fill="#191919"/>
<path d="M21.3347 0H53.1532V1.01579H21.3347V0Z" fill="#191919"/>
<path d="M24.8191 4.50244H49.4244V29.1051H24.8191V4.50244Z" fill="#191919"/>
<path d="M32.0269 15.645H42.3506V17.9398H32.0269V15.645Z" fill="#FDFBF5"/>
</svg>
