<svg width="114" height="32" viewBox="0 0 114 32" fill="none" xmlns="http://www.w3.org/2000/svg">
<path fill-rule="evenodd" clip-rule="evenodd" d="M0.841309 0H113.159V32H0.841309V0ZM2.36512 1.52381V30.4762H111.635V1.52381H2.36512Z" fill="#191919"/>
<path d="M4.59717 3.63013H56.9765V28.392H4.59717V3.63013Z" fill="#191919"/>
<path d="M11.2304 20.1907H12.2059L15.5111 11.8689H14.405L13.0144 15.3758L11.7181 18.6811L10.4103 15.3758L9.0313 11.8689H7.91357L11.2304 20.1907Z" fill="#FDFBF5"/>
<path d="M17.8257 20.1907H18.8723V11.8689H17.8257V20.1907Z" fill="#FDFBF5"/>
<path d="M24.9709 20.3446C26.7897 20.3446 27.967 19.4534 27.967 18.0033C27.967 16.7781 27.1469 16.0423 25.0189 15.5182C23.4018 15.1263 22.8661 14.6981 22.8661 14.0086C22.8661 13.2116 23.5804 12.7123 24.7692 12.7123C25.9928 12.7123 26.7534 13.3307 26.7782 14.3294H27.8116C27.8 12.7123 26.6343 11.7136 24.7692 11.7136C22.9488 11.7136 21.7963 12.6065 21.7963 14.0086C21.7963 15.2933 22.7123 16.006 24.756 16.4937C26.254 16.8492 26.884 17.2659 26.884 18.0397C26.884 18.8598 26.1482 19.3459 24.9709 19.3459C23.6746 19.3459 22.7719 18.7044 22.7471 17.6346H21.7004C21.7137 19.2632 22.9852 20.3446 24.9709 20.3446Z" fill="#FDFBF5"/>
<path d="M30.7925 20.1907H31.8391V11.8689H30.7925V20.1907Z" fill="#FDFBF5"/>
<path d="M38.9479 20.3446C41.481 20.3446 43.2634 18.5622 43.2634 16.0291C43.2634 13.4977 41.481 11.7136 38.9479 11.7136C36.4149 11.7136 34.644 13.4977 34.644 16.0291C34.644 18.5622 36.4149 20.3446 38.9479 20.3446ZM35.7138 16.0291C35.7138 14.0913 37.0333 12.7603 38.9479 12.7603C40.8626 12.7603 42.1821 14.0913 42.1821 16.0291C42.1821 17.9669 40.8626 19.2996 38.9479 19.2996C37.0333 19.2996 35.7138 17.9669 35.7138 16.0291Z" fill="#FDFBF5"/>
<path d="M46.0542 20.1907H47.0893V13.6761L51.6908 20.1907H52.6647V11.8689H51.6428V18.3834L47.0413 11.8689H46.0542V20.1907Z" fill="#FDFBF5"/>
<path d="M64.6357 20.1174C66.7041 20.1174 67.9277 19.1419 67.9277 17.5016C67.9277 16.1227 67.0364 15.3141 65.0159 14.8628C63.9462 14.6247 63.5543 14.3634 63.5543 13.9352C63.5543 13.5301 63.9098 13.2804 64.4687 13.2804C65.135 13.2804 65.5153 13.626 65.5153 14.2559H67.7739C67.7739 12.5446 66.466 11.4385 64.4207 11.4385C62.4597 11.4385 61.2478 12.414 61.2478 13.9831C61.2478 15.3852 62.1621 16.2533 64.0404 16.6104C65.0507 16.8122 65.5384 17.1214 65.5384 17.5975C65.5384 18.0126 65.1829 18.2507 64.5993 18.2507C63.9098 18.2507 63.5064 17.8819 63.5064 17.2404H61.1882C61.1882 19.036 62.4713 20.1174 64.6357 20.1174Z" fill="#191919"/>
<path d="M71.2333 19.9392H73.6225V13.8397H76.1556V11.6174H68.7002V13.8397H71.2333V19.9392Z" fill="#191919"/>
<path d="M80.9448 20.1178C83.1918 20.1178 84.584 18.7504 84.584 16.5149V11.6174H82.1931V16.3612C82.1931 17.3483 81.7781 17.8707 80.9448 17.8707C80.1131 17.8707 79.6964 17.3483 79.6964 16.3612V11.6174H77.2957V16.5149C77.2957 18.7504 78.6978 20.1178 80.9448 20.1178Z" fill="#191919"/>
<path d="M86.2827 19.9392H89.8145C92.5013 19.9392 94.2837 18.2874 94.2837 15.7775C94.2837 13.2808 92.5013 11.6174 89.8145 11.6174H86.2827V19.9392ZM88.6835 17.7881V13.7686H89.7417C91.0149 13.7686 91.835 14.5539 91.835 15.7775C91.835 17.0027 91.0149 17.7881 89.7417 17.7881H88.6835Z" fill="#191919"/>
<path d="M95.5674 19.9392H97.9682V11.6174H95.5674V19.9392Z" fill="#191919"/>
<path d="M103.782 20.1174C106.433 20.1174 108.311 18.3217 108.311 15.7771C108.311 13.2341 106.433 11.4385 103.782 11.4385C101.132 11.4385 99.2517 13.2341 99.2517 15.7771C99.2517 18.3217 101.132 20.1174 103.782 20.1174ZM101.689 15.7771C101.689 14.5288 102.557 13.6624 103.782 13.6624C105.019 13.6624 105.874 14.5288 105.874 15.7771C105.874 17.0255 105.019 17.8935 103.782 17.8935C102.557 17.8935 101.689 17.0255 101.689 15.7771Z" fill="#191919"/>
</svg>
