<svg width="70" height="60" viewBox="0 0 70 60" fill="none" xmlns="http://www.w3.org/2000/svg">
<path d="M2.3301 59.9227H0.645752V53.3057H2.3301V59.9227Z" fill="#191919"/>
<path d="M11.9318 59.9227H10.4456L7.40241 55.8534V59.9227H5.82422V53.3057H7.31041L10.3606 57.3891V53.3057H11.9318V59.9227Z" fill="#191919"/>
<path d="M27.0587 59.922H25.5725L25.5654 55.6262L23.9802 59.2638H22.8832L21.2979 55.6262V59.922H19.7905V53.2979H21.6376L23.4282 57.2398L25.2257 53.2979H27.0587V59.922Z" fill="#191919"/>
<path d="M33.7043 53.2485C34.7269 53.2485 35.5797 53.5705 36.2591 54.211C36.9421 54.848 37.2853 55.6459 37.2853 56.6031C37.2853 57.5709 36.9421 58.3794 36.2591 59.0305C35.5744 59.6781 34.7199 60.0001 33.6972 60.0001C32.6781 60.0001 31.8289 59.6781 31.1495 59.0305C30.4701 58.3847 30.1304 57.5762 30.1304 56.6031C30.1304 55.6406 30.4701 54.8409 31.1495 54.2039C31.8289 53.567 32.6799 53.2485 33.7043 53.2485ZM33.7185 54.6569C33.2036 54.6569 32.7631 54.8462 32.395 55.223C32.0306 55.5964 31.8501 56.0617 31.8501 56.6172C31.8501 57.1692 32.0341 57.6363 32.4021 58.0185C32.7701 58.4007 33.2089 58.5917 33.7185 58.5917C34.228 58.5917 34.6597 58.4007 35.0136 58.0185C35.371 57.6363 35.5514 57.1692 35.5514 56.6172C35.5514 56.0617 35.371 55.5964 35.0136 55.223C34.6597 54.8462 34.228 54.6569 33.7185 54.6569Z" fill="#191919"/>
<path d="M45.4017 54.6567H43.4059V59.922H41.7216V54.6567H39.7471V53.2979H45.4017V54.6567Z" fill="#191919"/>
<path d="M49.9729 59.9227H48.2886V53.3057H49.9729V59.9227Z" fill="#191919"/>
<path d="M56.6091 53.2485C57.6317 53.2485 58.4845 53.5705 59.1639 54.211C59.8469 54.848 60.1901 55.6459 60.1901 56.6031C60.1901 57.5709 59.8469 58.3794 59.1639 59.0305C58.4792 59.6781 57.6247 60.0001 56.602 60.0001C55.5829 60.0001 54.7337 59.6781 54.0543 59.0305C53.3749 58.3847 53.0352 57.5762 53.0352 56.6031C53.0352 55.6406 53.3749 54.8409 54.0543 54.2039C54.7337 53.567 55.5847 53.2485 56.6091 53.2485ZM56.6232 54.6569C56.1084 54.6569 55.6678 54.8462 55.2998 55.223C54.9354 55.5964 54.7549 56.0617 54.7549 56.6172C54.7549 57.1692 54.9389 57.6363 55.3069 58.0185C55.6749 58.4007 56.1137 58.5917 56.6232 58.5917C57.1328 58.5917 57.5645 58.4007 57.9184 58.0185C58.2757 57.6363 58.4562 57.1692 58.4562 56.6172C58.4562 56.0617 58.2757 55.5964 57.9184 55.223C57.5645 54.8462 57.1328 54.6569 56.6232 54.6569Z" fill="#191919"/>
<path d="M69.3544 59.9227H67.8682L64.825 55.8534V59.9227H63.2468V53.3057H64.733L67.7832 57.3891V53.3057H69.3544V59.9227Z" fill="#191919"/>
<path d="M49.2197 42.084H13.9934V6.82764H49.2197V42.084ZM14.556 41.5213H48.657V7.39027H14.556V41.5213Z" fill="#191919"/>
<path d="M52.4042 38.5207H17.1797V3.2644H52.4042V38.5207ZM17.7405 37.9581H51.8415V3.82703H17.7405V37.9581Z" fill="#191919"/>
<path d="M55.7762 35.2581H20.5518V0H55.7762V35.2581ZM21.1144 34.6955H55.2154V0.562629H21.1144V34.6955Z" fill="#191919"/>
<path d="M25.2917 22.96H33.0819V30.7518H25.2917V22.96Z" fill="#191919"/>
</svg>
