<svg width="70" height="60" viewBox="0 0 70 60" fill="none" xmlns="http://www.w3.org/2000/svg">
<path d="M35.0567 0.895302C26.5907 0.895302 19.7029 7.78304 19.7029 16.2491C19.7029 24.7151 26.5907 31.6013 35.0567 31.6013C43.5227 31.6013 50.4089 24.7151 50.4089 16.2491C50.4089 7.78304 43.5227 0.895302 35.0567 0.895302ZM35.0567 32.4981C26.0977 32.4981 18.8076 25.208 18.8076 16.2491C18.8076 7.2901 26.0977 0 35.0567 0C44.0156 0 51.3057 7.2901 51.3057 16.2491C51.3057 25.208 44.0156 32.4981 35.0567 32.4981Z" fill="#191919"/>
<path d="M35.0568 2.8714C27.6806 2.8714 21.6793 8.87274 21.6793 16.249C21.6793 23.6252 27.6806 29.6265 35.0568 29.6265C42.433 29.6265 48.4344 23.6252 48.4344 16.249C48.4344 8.87274 42.433 2.8714 35.0568 2.8714ZM35.0568 30.5218C27.1862 30.5218 20.7825 24.1196 20.7825 16.249C20.7825 8.37832 27.1862 1.97461 35.0568 1.97461C42.9275 1.97461 49.3297 8.37832 49.3297 16.249C49.3297 24.1196 42.9275 30.5218 35.0568 30.5218Z" fill="#191919"/>
<path d="M35.0567 4.84647C28.7688 4.84647 23.6538 9.96142 23.6538 16.2493C23.6538 22.5372 28.7688 27.6522 35.0567 27.6522C41.3446 27.6522 46.4595 22.5372 46.4595 16.2493C46.4595 9.96142 41.3446 4.84647 35.0567 4.84647ZM35.0567 28.5475C28.2759 28.5475 22.7585 23.0302 22.7585 16.2493C22.7585 9.46849 28.2759 3.95117 35.0567 3.95117C41.8375 3.95117 47.3548 9.46849 47.3548 16.2493C47.3548 23.0302 41.8375 28.5475 35.0567 28.5475Z" fill="#191919"/>
<path d="M35.0566 6.82108C29.8585 6.82108 25.6285 11.0511 25.6285 16.2492C25.6285 21.4473 29.8585 25.6774 35.0566 25.6774C40.2547 25.6774 44.4847 21.4473 44.4847 16.2492C44.4847 11.0511 40.2547 6.82108 35.0566 6.82108ZM35.0566 26.5727C29.3641 26.5727 24.7332 21.9417 24.7332 16.2492C24.7332 10.5567 29.3641 5.92578 35.0566 5.92578C40.7491 5.92578 45.38 10.5567 45.38 16.2492C45.38 21.9417 40.7491 26.5727 35.0566 26.5727Z" fill="#191919"/>
<path d="M35.0567 8.79718C30.947 8.79718 27.6048 12.1393 27.6048 16.2491C27.6048 20.3589 30.947 23.7011 35.0567 23.7011C39.1665 23.7011 42.5087 20.3589 42.5087 16.2491C42.5087 12.1393 39.1665 8.79718 35.0567 8.79718ZM35.0567 24.5978C30.454 24.5978 26.708 20.8518 26.708 16.2491C26.708 11.6449 30.454 7.90039 35.0567 7.90039C39.6594 7.90039 43.4055 11.6449 43.4055 16.2491C43.4055 20.8518 39.6594 24.5978 35.0567 24.5978Z" fill="#191919"/>
<path d="M35.0569 10.7718C32.0369 10.7718 29.5796 13.229 29.5796 16.249C29.5796 19.269 32.0369 21.7262 35.0569 21.7262C38.0768 21.7262 40.5341 19.269 40.5341 16.249C40.5341 13.229 38.0768 10.7718 35.0569 10.7718ZM35.0569 22.6215C31.5425 22.6215 28.6843 19.7634 28.6843 16.249C28.6843 12.7346 31.5425 9.875 35.0569 9.875C38.5712 9.875 41.4294 12.7346 41.4294 16.249C41.4294 19.7634 38.5712 22.6215 35.0569 22.6215Z" fill="#191919"/>
<path d="M35.057 12.7466C33.1253 12.7466 31.5545 14.3175 31.5545 16.2491C31.5545 18.1793 33.1253 19.7517 35.057 19.7517C36.9887 19.7517 38.5595 18.1793 38.5595 16.2491C38.5595 14.3175 36.9887 12.7466 35.057 12.7466ZM35.057 20.647C32.6324 20.647 30.6592 18.6737 30.6592 16.2491C30.6592 13.8245 32.6324 11.8513 35.057 11.8513C37.4816 11.8513 39.4548 13.8245 39.4548 16.2491C39.4548 18.6737 37.4816 20.647 35.057 20.647Z" fill="#191919"/>
<path d="M35.0569 14.7212C34.215 14.7212 33.5291 15.4072 33.5291 16.249C33.5291 17.0909 34.215 17.7754 35.0569 17.7754C35.8987 17.7754 36.5847 17.0909 36.5847 16.249C36.5847 15.4072 35.8987 14.7212 35.0569 14.7212ZM35.0569 18.6721C33.7206 18.6721 32.6338 17.5853 32.6338 16.249C32.6338 14.9128 33.7206 13.8259 35.0569 13.8259C36.3932 13.8259 37.48 14.9128 37.48 16.249C37.48 17.5853 36.3932 18.6721 35.0569 18.6721Z" fill="#191919"/>
<path d="M4.94357 49.1102C3.3638 49.1102 2.20124 48.7865 1.45739 48.1362C0.79519 47.5631 0.465576 46.7791 0.465576 45.7843C0.465576 44.791 0.79519 44.0056 1.45739 43.4266C2.20124 42.7822 3.3638 42.4585 4.94357 42.4585C5.87005 42.4585 6.63618 42.5654 7.24196 42.7792C7.84773 42.99 8.31691 43.2781 8.64949 43.6463C8.98505 44.0145 9.20924 44.4362 9.3206 44.9113H6.49958C6.21748 44.4169 5.6993 44.1689 4.94357 44.1689C4.29325 44.1689 3.81665 44.356 3.51227 44.7272C3.27026 45.0241 3.15 45.3775 3.15 45.7843C3.15 46.1926 3.27026 46.5445 3.51227 46.8415C3.81665 47.2141 4.29325 47.3997 4.94357 47.3997C5.6993 47.3997 6.21748 47.1503 6.49958 46.6514H9.3206C9.20924 47.131 8.98505 47.5541 8.64949 47.9224C8.31691 48.2906 7.84773 48.5816 7.24196 48.7954C6.63618 49.0047 5.87005 49.1102 4.94357 49.1102Z" fill="#191919"/>
<path d="M19.1094 48.9738H16.5794C16.4606 48.812 16.3774 48.6056 16.3299 48.3562C16.2898 48.1661 16.229 47.9791 16.1458 47.792C16.0627 47.6064 15.9172 47.452 15.7123 47.3287C15.5104 47.207 15.2089 47.1387 14.8096 47.1268H13.0694V48.9738H10.385V42.5835H14.7442C15.7895 42.5835 16.6298 42.6607 17.2683 42.8151C17.9097 42.9695 18.3759 43.216 18.6699 43.5516C18.9624 43.8841 19.1094 44.3206 19.1094 44.8581C19.1094 45.3065 19.0084 45.6836 18.8065 45.9925C18.6046 46.2983 18.2839 46.5389 17.8444 46.717C18.2675 46.8922 18.5422 47.1016 18.6699 47.3466C18.7961 47.593 18.8733 47.8618 18.9015 48.1543C18.9327 48.4156 19.0025 48.6888 19.1094 48.9738ZM13.0694 45.553L14.6017 45.547C15.0293 45.547 15.3648 45.5292 15.6113 45.4936C15.8563 45.455 16.036 45.4015 16.1518 45.3332C16.2705 45.2664 16.3448 45.1937 16.3774 45.1135C16.4131 45.0304 16.4309 44.9457 16.4309 44.8581C16.4309 44.772 16.4131 44.6859 16.3774 44.6028C16.3448 44.5196 16.2705 44.4454 16.1518 44.3771C16.036 44.3103 15.8563 44.2583 15.6113 44.2227C15.3648 44.1841 15.0293 44.1633 14.6017 44.1633H13.0694V45.553Z" fill="#191919"/>
<path d="M27.872 48.9738H20.175V42.5835H27.5216V44.1633H22.8595V45.167H26.797V46.3963H22.8595V47.3941H27.872V48.9738Z" fill="#191919"/>
<path d="M38.9617 48.9738H36.2416L35.6418 47.9286H31.6092L31.0094 48.9738H28.2893L32.3813 42.5835H34.8697L38.9617 48.9738ZM34.739 46.3429L33.6285 44.4068L32.5119 46.3429H34.739Z" fill="#191919"/>
<path d="M44.4723 48.9738H41.7938V44.1633H39.2876V42.5835H46.9786V44.1633H44.4723V48.9738Z" fill="#191919"/>
<path d="M50.6358 48.9738H47.9514V42.5835H50.6358V48.9738Z" fill="#191919"/>
<path d="M57.4845 48.9738H54.9901L51.4089 42.5835H54.129L56.2373 47.1506L58.3457 42.5835H61.0657L57.4845 48.9738Z" fill="#191919"/>
<path d="M69.5343 48.9738H61.8374V42.5835H69.1839V44.1633H64.5218V45.167H68.4594V46.3963H64.5218V47.3941H69.5343V48.9738Z" fill="#191919"/>
<path d="M14.3941 59.9999C13.53 59.9999 12.8336 59.9063 12.3036 59.7208C11.7765 59.5352 11.3741 59.2798 11.098 58.9546C10.8203 58.6309 10.6347 58.2568 10.5397 57.8322H13.3904C13.5998 58.1336 13.9338 58.2835 14.3941 58.2835C14.8529 58.2835 15.1899 58.1336 15.4037 57.8322C15.4186 57.801 15.4275 57.7728 15.4275 57.749C15.4275 57.6703 15.3206 57.6109 15.1068 57.5708C14.896 57.5322 14.5797 57.5025 14.1566 57.4818C13.625 57.458 13.0667 57.4016 12.4818 57.3095C11.1782 57.1076 10.5278 56.5835 10.5278 55.7357C10.5278 55.6644 10.5308 55.5902 10.5397 55.51C10.6347 55.0869 10.8203 54.7127 11.098 54.3875C11.3741 54.0639 11.7765 53.8085 12.3036 53.6214C12.8336 53.4358 13.53 53.3423 14.3941 53.3423C15.2567 53.3423 15.9516 53.4358 16.4787 53.6214C17.0087 53.8085 17.4126 54.0639 17.6902 54.3875C17.9664 54.7127 18.1535 55.0869 18.2485 55.51H15.4037C15.1899 55.2101 14.8529 55.0587 14.3941 55.0587C13.9338 55.0587 13.5998 55.2101 13.3904 55.51C13.3741 55.5338 13.3667 55.556 13.3667 55.5753C13.3667 55.6466 13.4676 55.7001 13.6696 55.7357C13.8744 55.7713 14.1759 55.801 14.5723 55.8248C14.9672 55.8485 15.3889 55.8886 15.8373 55.9436C16.2842 55.9955 16.7044 56.0861 17.0963 56.2168C17.4883 56.3474 17.7927 56.5434 18.011 56.8047C18.1847 57.0037 18.2723 57.2546 18.2723 57.559C18.2723 57.6466 18.2634 57.7371 18.2485 57.8322C18.1535 58.2568 17.9664 58.6309 17.6902 58.9546C17.4126 59.2798 17.0087 59.5352 16.4787 59.7208C15.9516 59.9063 15.2567 59.9999 14.3941 59.9999Z" fill="#191919"/>
<path d="M24.0732 59.8635H21.3947V55.0529H18.8884V53.4731H26.5794V55.0529H24.0732V59.8635Z" fill="#191919"/>
<path d="M31.3356 60.0001C29.7751 60.0001 28.6779 59.6779 28.0454 59.032C27.5109 58.4856 27.2437 57.7002 27.2437 56.6743V53.4731H29.9221V56.6743C29.9221 57.1182 29.9964 57.4701 30.1478 57.7314C30.3646 58.0996 30.761 58.2837 31.3356 58.2837C31.9132 58.2837 32.3096 58.0996 32.5234 57.7314C32.6734 57.4627 32.7491 57.1108 32.7491 56.6743V53.4731H35.4335V56.7099C35.4335 57.7121 35.1677 58.4856 34.6377 59.032C33.9963 59.6779 32.8946 60.0001 31.3356 60.0001Z" fill="#191919"/>
<path d="M40.8173 59.8635H36.5413V53.4731H40.8173C42.5664 53.4731 43.8239 53.7166 44.5886 54.2036C45.2062 54.6001 45.5581 55.139 45.6457 55.819C45.6843 56.113 45.7051 56.3951 45.7051 56.6683C45.7051 56.9385 45.6843 57.2206 45.6457 57.5176C45.6101 57.8145 45.5106 58.1026 45.3488 58.3787C45.1899 58.6564 44.936 58.9058 44.5886 59.1271C44.2397 59.3498 43.7601 59.5279 43.1513 59.6616C42.5456 59.7967 41.7676 59.8635 40.8173 59.8635ZM40.562 58.2837C41.9279 58.2837 42.7 57.9393 42.8782 57.2503C42.9257 57.0573 42.9494 56.8628 42.9494 56.6683C42.9494 56.4753 42.9227 56.2823 42.8722 56.0922C42.8247 55.8992 42.7208 55.724 42.5634 55.5696C42.4045 55.4122 42.1655 55.2875 41.8448 55.1954C41.527 55.1004 41.0994 55.0529 40.562 55.0529H39.2257V58.2837H40.562Z" fill="#191919"/>
<path d="M49.452 59.8635H46.7676V53.4731H49.452V59.8635Z" fill="#191919"/>
<path d="M54.9939 59.9999C53.4141 59.9999 52.2515 59.6762 51.5077 59.0259C50.8455 58.4483 50.5159 57.6629 50.5159 56.6681C50.5159 55.6793 50.8455 54.8953 51.5077 54.3163C52.2515 53.6674 53.4141 53.3423 54.9939 53.3423C56.5736 53.3423 57.7347 53.6674 58.48 54.3163C59.1408 54.8953 59.4719 55.6793 59.4719 56.6681C59.4719 57.6629 59.1408 58.4483 58.48 59.0259C57.7347 59.6762 56.5736 59.9999 54.9939 59.9999ZM54.9939 58.2835C55.6382 58.2835 56.1134 58.0994 56.4192 57.7312C56.6597 57.4313 56.7815 57.0764 56.7815 56.6681C56.7815 56.2613 56.6597 55.9079 56.4192 55.611C56.1134 55.2398 55.6382 55.0527 54.9939 55.0527C54.3435 55.0527 53.8669 55.2398 53.5626 55.611C53.3206 55.9079 53.2003 56.2613 53.2003 56.6681C53.2003 57.0764 53.3206 57.4313 53.5626 57.7312C53.8669 58.0994 54.3435 58.2835 54.9939 58.2835Z" fill="#191919"/>
</svg>
