<svg width="60" height="60" viewBox="0 0 60 60" fill="none" xmlns="http://www.w3.org/2000/svg">
<path d="M30.0001 60C21.9906 60 14.4487 56.8819 8.7895 51.211C3.11781 45.551 0.000488281 38.0091 0.000488281 29.9996C0.000488281 21.9901 3.11781 14.4482 8.7895 8.78901C14.4487 3.11732 21.9906 0 30.0001 0C38.0096 0 45.5515 3.11732 51.2107 8.78901C56.8824 14.4599 59.9997 21.9901 59.9997 29.9996C59.9997 38.0091 56.8824 45.551 51.2107 51.211C45.5515 56.8819 38.0096 60 30.0001 60ZM30.0001 1.7983C22.4699 1.7983 15.3838 4.73579 10.06 10.0596C4.73628 15.3833 1.79879 22.4702 1.79879 29.9996C1.79879 37.5298 4.73628 44.6159 10.06 49.9397C15.3838 55.2634 22.4699 58.2009 30.0001 58.2009C37.5303 58.2009 44.6164 55.2634 49.9402 49.9397C55.2639 44.6159 58.2014 37.5298 58.2014 29.9996C58.2014 22.4702 55.2639 15.3833 49.9402 10.0596C44.6164 4.73579 37.5303 1.7983 30.0001 1.7983Z" fill="#191919"/>
<path d="M36.1363 16.999C36.0151 16.8864 35.8259 16.8934 35.7133 17.0146L33.2833 19.6378L33.1167 19.4846L35.5476 16.8614C35.6602 16.7402 35.6531 16.551 35.5319 16.4384C35.4107 16.3258 35.2215 16.3328 35.1082 16.454L32.6781 19.078L32.5124 18.9239L34.9432 16.3008C35.055 16.1796 35.048 15.9904 34.9268 15.8778C34.8064 15.766 34.6164 15.773 34.5038 15.8942L32.0737 18.5174L31.908 18.3633L34.338 15.741C34.4506 15.619 34.4436 15.4298 34.3224 15.3172C34.2012 15.2054 34.012 15.2124 33.8994 15.3336L31.4693 17.9568L31.4678 17.956L31.3919 18.035C31.3247 18.1085 31.2637 18.182 31.209 18.257L31.2066 18.2594C31.001 18.5385 30.8837 18.8293 30.8845 19.1687C30.8853 19.526 31.0104 19.863 31.2387 20.1405C31.0854 20.3032 30.4013 20.9701 29.5772 21.77C28.5921 20.723 27.7218 19.7934 27.5467 19.5893C27.8016 19.3071 27.9517 18.9552 27.9697 18.5776C27.9869 18.2171 27.8766 17.9036 27.6734 17.5987H27.6741L27.6702 17.5948C27.6163 17.5127 27.5553 17.4321 27.488 17.3508L27.4114 17.264L27.4099 17.2648L27.112 16.9536C25.47 15.5197 24.6538 15.3954 24.176 15.8051C23.6162 16.2844 23.4262 17.1178 24.6819 19.0412L24.9579 19.4095L24.9587 19.4103L24.9884 19.4462C25.3246 19.8536 25.6483 20.0842 26.1143 20.1429C26.4685 20.1867 26.8188 20.1108 27.1284 19.9302C27.3027 20.1421 28.0956 21.1812 28.9814 22.347C27.7633 23.5268 26.4466 24.7981 26.1049 25.1375C25.8649 25.3666 25.7327 25.5222 25.7327 25.5222C25.4998 25.7731 25.5162 26.1672 25.7695 26.4018C26.0228 26.6371 26.4169 26.623 26.6499 26.3721C26.6499 26.3721 26.8149 26.1977 26.9595 26.028L26.9603 26.0288C27.173 25.7841 28.3598 24.3603 29.4857 23.0108C30.5413 24.4025 31.589 25.7857 31.7891 26.0374V26.0358C31.9345 26.2227 32.1003 26.4158 32.1003 26.4158C32.3349 26.6942 32.7516 26.7278 33.0315 26.4917C33.3114 26.2548 33.3482 25.838 33.1136 25.5613C33.1136 25.5613 32.9815 25.3892 32.7383 25.1351C32.4162 24.7841 31.2356 23.5323 30.0776 22.3024C30.8321 21.4017 31.4646 20.6495 31.6179 20.4807C31.9009 20.6644 32.2278 20.7512 32.5632 20.7246C33.0049 20.6902 33.3192 20.4877 33.6539 20.1186L33.6836 20.085L33.6852 20.0842L36.1527 17.4212C36.2646 17.3 36.2575 17.1108 36.1363 16.999Z" fill="#191919"/>
<path d="M21.0812 30.2842C21.6895 30.2842 22.2235 30.4359 22.6825 30.7377L22.2947 31.5446C22.082 31.4195 21.8537 31.3178 21.6098 31.2381C21.3658 31.1591 21.1602 31.1192 20.9936 31.1192C20.695 31.1192 20.5464 31.2185 20.5464 31.4163C20.5464 31.5438 20.6191 31.6462 20.7653 31.7228C20.9131 31.8002 21.0922 31.8667 21.3033 31.923C21.5159 31.9793 21.727 32.0473 21.9381 32.1263C22.1485 32.206 22.3267 32.335 22.4729 32.5141C22.6207 32.6916 22.695 32.916 22.695 33.1865C22.695 33.5766 22.5418 33.8808 22.2353 34.0997C21.9303 34.3186 21.5417 34.4281 21.0687 34.4281C20.7325 34.4281 20.4002 34.371 20.071 34.2561C19.7411 34.1396 19.4557 33.9801 19.2141 33.7776L19.6144 32.9832C19.8185 33.1607 20.0593 33.3069 20.3369 33.421C20.616 33.536 20.8639 33.5931 21.0812 33.5931C21.2478 33.5931 21.3768 33.5633 21.469 33.5024C21.5629 33.4422 21.6098 33.3546 21.6098 33.2397C21.6098 33.1271 21.5566 33.0332 21.4503 32.9582C21.3439 32.8816 21.211 32.8253 21.0531 32.7893C20.8944 32.7518 20.7223 32.7033 20.537 32.6423C20.351 32.5798 20.1782 32.5125 20.0179 32.439C19.8592 32.364 19.727 32.2467 19.6207 32.0856C19.5143 31.9253 19.4612 31.7338 19.4612 31.5102C19.4612 31.1372 19.609 30.8401 19.9053 30.6188C20.2008 30.396 20.5933 30.2842 21.0812 30.2842Z" fill="#191919"/>
<path d="M27.32 30.3311V32.6861C27.32 33.224 27.1527 33.6517 26.8197 33.9683C26.4881 34.2834 26.0378 34.4406 25.4686 34.4406C24.8947 34.4406 24.4396 34.2834 24.1019 33.9683C23.7641 33.6517 23.5952 33.224 23.5952 32.6861V30.3311H24.6273V32.6861C24.6273 32.9574 24.7055 33.1732 24.8618 33.3334C25.0182 33.4945 25.2223 33.5743 25.4748 33.5743C25.7227 33.5743 25.9205 33.4953 26.0691 33.3366C26.2192 33.1786 26.2942 32.9613 26.2942 32.6861V30.3311H27.32Z" fill="#191919"/>
<path d="M28.469 30.3311H30.2391C30.7583 30.3311 31.1602 30.4546 31.4464 30.7001C31.7317 30.9464 31.8748 31.2959 31.8748 31.7478C31.8748 32.2232 31.7317 32.5922 31.4464 32.8549C31.1602 33.1176 30.7583 33.249 30.2391 33.249H29.5011V34.3937H28.469V30.3311ZM29.5011 31.1442V32.439H30.186C30.4151 32.439 30.591 32.3827 30.7145 32.2701C30.8396 32.1575 30.9022 31.9949 30.9022 31.7822C30.9022 31.5742 30.8396 31.4155 30.7145 31.3068C30.591 31.1989 30.4151 31.1442 30.186 31.1442H29.5011Z" fill="#191919"/>
<path d="M36.0024 31.1442H33.8538V31.9511H35.7929V32.7611H33.8538V33.5805H36.065V34.3937H32.8218V30.3311H36.0024V31.1442Z" fill="#191919"/>
<path d="M39.588 34.3937L38.9844 33.249H38.1712V34.3937H37.1392V30.3311H38.9562C39.4942 30.3311 39.9101 30.4546 40.2041 30.7001C40.4981 30.9464 40.6451 31.2959 40.6451 31.7478C40.6451 32.3733 40.3988 32.808 39.907 33.052L40.7608 34.3937H39.588ZM38.1712 32.439H38.9562C39.1791 32.439 39.3519 32.3827 39.4754 32.2701C39.6005 32.1575 39.663 31.9949 39.663 31.7822C39.663 31.5742 39.6005 31.4155 39.4754 31.3068C39.3519 31.1989 39.1791 31.1442 38.9562 31.1442H38.1712V32.439Z" fill="#191919"/>
<path d="M24.1834 37.9005H22.2037V38.8388H24.027V39.6519H22.2037V41.15H21.1716V37.0874H24.1834V37.9005Z" fill="#191919"/>
<path d="M27.0093 37.0527C27.641 37.0527 28.1649 37.249 28.5824 37.6407C29.0015 38.0332 29.211 38.5242 29.211 39.1137C29.211 39.7064 28.9999 40.2013 28.5793 40.5993C28.1602 40.9981 27.6363 41.1967 27.0093 41.1967C26.3814 41.1967 25.8591 40.9988 25.4424 40.6024C25.0249 40.2045 24.8169 39.708 24.8169 39.1137C24.8169 38.5219 25.0249 38.0309 25.4424 37.6407C25.8591 37.249 26.3814 37.0527 27.0093 37.0527ZM27.0218 37.9159C26.7043 37.9159 26.4338 38.0316 26.2086 38.2631C25.9834 38.4929 25.8709 38.7783 25.8709 39.12C25.8709 39.4601 25.9834 39.7471 26.2086 39.9801C26.4354 40.2138 26.7059 40.3303 27.0186 40.3303C27.333 40.3303 27.6004 40.2138 27.8193 39.9801C28.0382 39.7471 28.1477 39.4601 28.1477 39.12C28.1477 38.7783 28.0382 38.4929 27.8193 38.2631C27.6004 38.0316 27.3345 37.9159 27.0218 37.9159Z" fill="#191919"/>
<path d="M32.0874 37.0527C32.7191 37.0527 33.243 37.249 33.6605 37.6407C34.0796 38.0332 34.2891 38.5242 34.2891 39.1137C34.2891 39.7064 34.078 40.2013 33.6574 40.5993C33.2383 40.9981 32.7144 41.1967 32.0874 41.1967C31.4595 41.1967 30.9373 40.9988 30.5205 40.6024C30.103 40.2045 29.895 39.708 29.895 39.1137C29.895 38.5219 30.103 38.0309 30.5205 37.6407C30.9373 37.249 31.4595 37.0527 32.0874 37.0527ZM32.0999 37.9159C31.7825 37.9159 31.5119 38.0316 31.2867 38.2631C31.0616 38.4929 30.949 38.7783 30.949 39.12C30.949 39.4601 31.0616 39.7471 31.2867 39.9801C31.5135 40.2138 31.784 40.3303 32.0968 40.3303C32.4111 40.3303 32.6785 40.2138 32.8974 39.9801C33.1163 39.7471 33.2258 39.4601 33.2258 39.12C33.2258 38.7783 33.1163 38.4929 32.8974 38.2631C32.6785 38.0316 32.4126 37.9159 32.0999 37.9159Z" fill="#191919"/>
<path d="M35.2385 37.0874H36.9868C37.6248 37.0874 38.144 37.2751 38.5443 37.6503C38.9446 38.0256 39.1448 38.5151 39.1448 39.1171C39.1448 39.7176 38.9415 40.2071 38.5349 40.5839C38.1283 40.9616 37.5982 41.15 36.9461 41.15H35.2385V37.0874ZM36.2706 37.9099V40.3243H37.0087C37.3253 40.3243 37.5849 40.2141 37.7874 39.9928C37.9915 39.77 38.0939 39.4815 38.0939 39.1265C38.0939 38.77 37.9876 38.4784 37.7749 38.2508C37.5622 38.0241 37.2909 37.9099 36.9618 37.9099H36.2706Z" fill="#191919"/>
<path d="M24.5735 44.625C24.7924 44.625 24.9879 44.6829 25.1614 44.797L25.0457 45.0472C24.8745 44.9432 24.7095 44.8908 24.5516 44.8908C24.4679 44.8908 24.4015 44.9065 24.3514 44.9377C24.3029 44.9675 24.2795 45.0097 24.2795 45.066C24.2795 45.1223 24.3014 45.1707 24.3452 45.2098C24.3905 45.2474 24.4468 45.2755 24.514 45.2943C24.5805 45.313 24.6532 45.3373 24.733 45.3662C24.8119 45.3936 24.8846 45.4225 24.9519 45.4538C25.0183 45.4851 25.0739 45.5343 25.1176 45.6008C25.1614 45.668 25.1833 45.7478 25.1833 45.8416C25.1833 45.9901 25.1239 46.1074 25.0051 46.195C24.8878 46.2826 24.7369 46.3264 24.5516 46.3264C24.4218 46.3264 24.2967 46.3029 24.1763 46.2544C24.0574 46.2067 23.9527 46.1418 23.8635 46.0605L23.9855 45.8134C24.0707 45.8932 24.1638 45.9542 24.2638 45.998C24.3655 46.0402 24.4624 46.0605 24.5547 46.0605C24.6548 46.0605 24.7314 46.0433 24.7861 46.0073C24.8424 45.9698 24.8706 45.9198 24.8706 45.8572C24.8706 45.7994 24.8471 45.7501 24.8018 45.7102C24.758 45.6711 24.7017 45.643 24.6329 45.6258C24.5656 45.607 24.4929 45.5844 24.414 45.557C24.3366 45.5304 24.2638 45.5023 24.195 45.4725C24.1278 45.4436 24.0715 45.3967 24.0262 45.3318C23.9824 45.2654 23.9605 45.1848 23.9605 45.091C23.9605 44.9495 24.0168 44.8369 24.1294 44.7532C24.242 44.668 24.3897 44.625 24.5735 44.625Z" fill="#191919"/>
<path d="M26.8858 44.8917H25.9663V45.3452H26.7888V45.5985H25.9663V46.0645H26.9139V46.3178H25.6848V44.6353H26.8858V44.8917Z" fill="#191919"/>
<path d="M27.7102 46.3178H27.4287V44.6353H27.7102V46.3178Z" fill="#191919"/>
<path d="M29.47 44.8917H28.9352V46.3178H28.6537V44.8917H28.1221V44.6353H29.47V44.8917Z" fill="#191919"/>
<path d="M31.0913 46.3178H30.8067V44.8886H30.4783V44.6353H31.0913V46.3178Z" fill="#191919"/>
<path d="M32.1952 46.3295C32.0115 46.3295 31.8449 46.2873 31.6948 46.2013L31.8043 45.9886C31.9122 46.0597 32.0365 46.0949 32.1764 46.0949C32.3344 46.0949 32.4532 46.041 32.533 45.9323C32.6119 45.822 32.6495 45.6727 32.6456 45.4851C32.5557 45.6438 32.4024 45.7227 32.1858 45.7227C32.0169 45.7227 31.884 45.6751 31.7886 45.5789C31.6925 45.4811 31.6448 45.3506 31.6448 45.1879C31.6448 45.0152 31.6979 44.8783 31.8043 44.7782C31.9122 44.6766 32.056 44.625 32.2359 44.625C32.4485 44.625 32.6151 44.6969 32.7363 44.8408C32.859 44.9847 32.9208 45.1848 32.9208 45.4413C32.9208 45.7102 32.8551 45.926 32.7238 46.0887C32.5924 46.2497 32.4157 46.3295 32.1952 46.3295ZM32.239 45.5007C32.3492 45.5007 32.4368 45.471 32.5017 45.41C32.5682 45.3474 32.6002 45.2716 32.5987 45.1817C32.6002 45.1004 32.5713 45.0284 32.5111 44.9659C32.4501 44.9018 32.3641 44.8689 32.2515 44.8689C32.1467 44.8689 32.0639 44.8971 32.0013 44.9534C31.9403 45.0097 31.9106 45.0894 31.9106 45.1911C31.9106 45.2872 31.9395 45.3631 31.9982 45.4194C32.056 45.4741 32.1366 45.5007 32.239 45.5007Z" fill="#191919"/>
<path d="M33.8402 46.3295C33.6565 46.3295 33.49 46.2873 33.3398 46.2013L33.4493 45.9886C33.5572 46.0597 33.6815 46.0949 33.8215 46.0949C33.9794 46.0949 34.0982 46.041 34.178 45.9323C34.257 45.822 34.2945 45.6727 34.2906 45.4851C34.2007 45.6438 34.0474 45.7227 33.8308 45.7227C33.662 45.7227 33.529 45.6751 33.4337 45.5789C33.3375 45.4811 33.2898 45.3506 33.2898 45.1879C33.2898 45.0152 33.343 44.8783 33.4493 44.7782C33.5572 44.6766 33.7011 44.625 33.8809 44.625C34.0936 44.625 34.2601 44.6969 34.3813 44.8408C34.504 44.9847 34.5658 45.1848 34.5658 45.4413C34.5658 45.7102 34.5001 45.926 34.3688 46.0887C34.2374 46.2497 34.0607 46.3295 33.8402 46.3295ZM33.884 45.5007C33.9943 45.5007 34.0818 45.471 34.1467 45.41C34.2132 45.3474 34.2452 45.2716 34.2437 45.1817C34.2452 45.1004 34.2163 45.0284 34.1561 44.9659C34.0951 44.9018 34.0091 44.8689 33.8965 44.8689C33.7918 44.8689 33.7089 44.8971 33.6463 44.9534C33.5853 45.0097 33.5556 45.0894 33.5556 45.1911C33.5556 45.2872 33.5846 45.3631 33.6432 45.4194C33.7011 45.4741 33.7816 45.5007 33.884 45.5007Z" fill="#191919"/>
<path d="M35.5266 44.625C35.6868 44.625 35.8159 44.6641 35.9144 44.7407C36.0121 44.8158 36.0614 44.9182 36.0614 45.0472C36.0614 45.1934 35.9589 45.3772 35.7549 45.5976L35.317 46.0636H36.1395V46.317H34.9448V46.1106L35.5641 45.4444C35.6994 45.3052 35.7674 45.1864 35.7674 45.0879C35.7674 45.0214 35.7424 44.969 35.6923 44.9315C35.6423 44.8924 35.5735 44.8721 35.4859 44.8721C35.3334 44.8721 35.1802 44.9424 35.0262 45.0816L34.9136 44.8627C35.1114 44.7048 35.3155 44.625 35.5266 44.625Z" fill="#191919"/>
</svg>
