<svg width="66" height="60" viewBox="0 0 66 60" fill="none" xmlns="http://www.w3.org/2000/svg">
<path d="M0.772217 50.8761H1.77514V42.8931H0.772217V50.8761Z" fill="#191919"/>
<path d="M11.6176 42.8931V49.0514L7.14661 42.8931H6.23486V50.8761H7.21586V44.6496L11.7538 50.8761H12.5975V42.8931H11.6176Z" fill="#191919"/>
<path d="M22.4051 42.8931L19.8626 49.3826L17.2844 42.8931H16.1787L19.4056 50.8761H20.3301L23.5004 42.8931H22.4051Z" fill="#191919"/>
<path d="M27.116 50.8761H28.1189V42.8931H27.116V50.8761Z" fill="#191919"/>
<path d="M34.9619 50.9796C36.5465 50.9796 37.7791 50.1244 37.7791 48.6183C37.7791 46.9541 36.3642 46.6228 35.1096 46.3147C34.0836 46.0758 33.1603 45.8473 33.1603 44.9805C33.1603 44.2165 33.8897 43.7606 34.8592 43.7606C35.8287 43.7606 36.5581 44.2742 36.5581 45.1629H37.5506C37.5506 43.7156 36.5361 42.8027 34.8823 42.8027C33.2284 42.8027 32.1678 43.6348 32.1678 45.0152C32.1678 46.6113 33.525 46.9425 34.7565 47.2276C35.794 47.478 36.7404 47.695 36.7404 48.6298C36.7404 49.4747 35.9545 49.9986 34.9504 49.9986C33.8447 49.9986 33.0346 49.4169 33.0346 48.4256H32.0085C32.0085 49.9986 33.2054 50.9796 34.9619 50.9796Z" fill="#191919"/>
<path d="M41.6677 50.8761H42.6706V42.8931H41.6677V50.8761Z" fill="#191919"/>
<path d="M50.7678 51.0132C53.1856 51.0132 54.941 49.2451 54.941 46.8953C54.941 44.5352 53.1856 42.7671 50.7678 42.7671C48.3499 42.7671 46.5818 44.5352 46.5818 46.8953C46.5818 49.2451 48.3499 51.0132 50.7678 51.0132ZM50.7678 50.0322C48.9546 50.0322 47.6089 48.675 47.6089 46.8953C47.6089 45.1053 48.9546 43.7481 50.7678 43.7481C52.5809 43.7481 53.9266 45.0938 53.9266 46.8953C53.9266 48.6865 52.5809 50.0322 50.7678 50.0322Z" fill="#191919"/>
<path d="M64.2478 42.8931V49.0514L59.7767 42.8931H58.865V50.8761H59.846V44.6496L64.384 50.8761H65.2276V42.8931H64.2478Z" fill="#191919"/>
<path d="M16.264 59.6626C16.8896 59.6626 17.3766 59.3256 17.3766 58.7313C17.3766 58.0734 16.818 57.943 16.3229 57.8207C15.9178 57.726 15.5531 57.636 15.5531 57.2944C15.5531 56.9932 15.8405 56.812 16.2236 56.812C16.6068 56.812 16.8942 57.0151 16.8942 57.3659H17.2866C17.2866 56.7947 16.885 56.4346 16.2329 56.4346C15.5797 56.4346 15.1607 56.7635 15.1607 57.3082C15.1607 57.9384 15.6962 58.0688 16.1833 58.1819C16.593 58.28 16.9669 58.3654 16.9669 58.7347C16.9669 59.0683 16.6553 59.276 16.2594 59.276C15.8232 59.276 15.5035 59.0463 15.5035 58.6539H15.0984C15.0984 59.276 15.5704 59.6626 16.264 59.6626Z" fill="#191919"/>
<path d="M24.7561 60L24.1433 59.2925C24.4907 58.9959 24.6972 58.5585 24.6972 58.0495C24.6972 57.1182 24.0036 56.4199 23.0492 56.4199C22.0947 56.4199 21.3965 57.1182 21.3965 58.0495C21.3965 58.9774 22.0947 59.6757 23.0492 59.6757C23.3377 59.6757 23.6078 59.6122 23.8374 59.4956L24.2702 60H24.7561ZM23.0492 59.2879C22.3336 59.2879 21.8027 58.7524 21.8027 58.0495C21.8027 57.3432 22.3336 56.8077 23.0492 56.8077C23.7659 56.8077 24.2968 57.3386 24.2968 58.0495C24.2968 58.4327 24.1387 58.7662 23.8824 58.9867L23.3146 58.3288H22.8334L23.572 59.1852C23.4139 59.2521 23.2384 59.2879 23.0492 59.2879Z" fill="#191919"/>
<path d="M30.1502 59.6758C30.8577 59.6758 31.384 59.1669 31.384 58.4513V56.4697H30.9881V58.419C30.9881 58.9418 30.6373 59.2881 30.1502 59.2881C29.6597 59.2881 29.3135 58.9418 29.3135 58.419V56.4697H28.9119V58.4513C28.9119 59.1669 29.4393 59.6758 30.1502 59.6758Z" fill="#191919"/>
<path d="M38.0116 59.6216H38.4398L37.116 56.4697H36.7467L35.4587 59.6216H35.8777L36.1835 58.8691H37.7012L38.0116 59.6216ZM36.936 57.0145L37.5535 58.5044H36.3324L36.936 57.0145Z" fill="#191919"/>
<path d="M44.3877 59.6216H44.8343L44.0772 58.3429C44.4916 58.2263 44.7755 57.8789 44.7755 57.4334C44.7755 56.8748 44.3392 56.4697 43.7483 56.4697H42.5515V59.6216H42.9474V58.3925H43.6629L44.3877 59.6216ZM42.9474 56.8483H43.7264C44.113 56.8483 44.3704 57.0953 44.3704 57.4334C44.3704 57.7704 44.113 58.0139 43.7264 58.0139H42.9474V56.8483Z" fill="#191919"/>
<path d="M49.4493 59.2431V58.1847H50.7189V57.82H49.4493V56.8483H50.8366V56.4697H49.0535V59.6216H50.8862V59.2431H49.4493Z" fill="#191919"/>
<path d="M18.6818 2.58179H26.1962L25.2083 3.54201H19.1619V9.58148L18.2017 10.5763V2.58179H18.6818ZM28.9303 2.58179H37.0714L38.0316 3.54201H27.9701L28.9303 2.58179ZM39.8332 2.58179H47.8277V10.5763L46.8398 9.5884V3.54201H40.8003L39.8332 2.58179ZM47.8277 13.3116V21.4515L46.8398 22.4117V12.3513L47.8277 13.3116ZM47.8277 24.2145V32.209H39.8332L40.7934 31.2211H46.8329V25.1816L47.8277 24.2145ZM37.0714 32.209H28.9303L27.9701 31.2211H38.0316L37.0714 32.209ZM26.1962 32.209H18.2017V24.2145L19.1619 25.1747V31.2141H25.2013L26.1962 32.209ZM18.2017 21.4515V13.3116L19.1619 12.3513V22.4117L18.2017 21.4515Z" fill="#191919"/>
<path d="M36.7082 0.153497L50.4087 13.854V20.9437L36.5559 34.7896H29.4719L15.6191 20.9367C15.6191 18.5639 15.6191 16.1922 15.6191 13.847C20.2183 9.22713 24.8451 4.60029 29.4719 0H36.5628L36.7082 0.153497ZM49.4208 14.2429L36.1381 0.960221H29.862L16.5794 14.2429V20.519L29.8551 33.7947H36.1312L49.4069 20.519V14.2429H49.4208Z" fill="#191919"/>
<path d="M33.3413 2.91648L36.8556 6.4296H35.4706L33.0147 3.93902L30.5241 6.4296H29.1738L33.0147 2.58179L33.3413 2.91648ZM38.8106 8.38466L42.0248 11.6V12.9492L37.4257 8.38466H38.8106ZM43.9799 13.5482L47.8277 17.3948L43.9799 21.2426V19.8588L46.4439 17.3948L43.9799 14.9042V13.5482ZM42.0248 23.1908L38.8106 26.4061H37.4257L42.0248 21.807V23.1908ZM36.8625 28.3612L33.0147 32.209L29.1669 28.3612H30.5172L33.0147 30.8241L35.4776 28.3612H36.8625ZM27.2187 26.4061L24.0045 23.1908V21.807L28.569 26.4061H27.2187ZM22.0495 21.2426L18.2017 17.3948L22.0495 13.5482V14.8973L19.5577 17.3948L22.0495 19.8588V21.2426ZM24.0045 11.6L27.2187 8.38466H28.569L24.0045 12.9492V11.6Z" fill="#191919"/>
<path d="M43.4716 10.6952V24.2767L40.0415 27.7275L39.6803 27.8464H26.3134L25.9868 27.7275L22.5291 24.2698V10.4863L26.1045 6.90967H39.895L43.4716 10.4863V10.6952ZM42.5044 23.8867V10.904L39.4991 7.86989H26.5223L23.4893 10.904V23.8797L26.5223 26.8862H39.4991L42.5044 23.8867Z" fill="#191919"/>
<path d="M33.3408 7.45195L37.0363 11.1474L33.0142 15.203L28.9575 11.1474L33.0142 7.11841L33.3408 7.45195ZM35.686 11.1474L33.0142 8.43987L30.3078 11.1474L33.0142 13.8538L35.686 11.1474Z" fill="#191919"/>
<path d="M42.9568 17.7227L39.2348 21.417L35.2058 17.3949L39.2348 13.3394L43.2904 17.3949L42.9568 17.7227ZM39.2348 20.1025L41.9412 17.3949L39.2348 14.6885L36.5561 17.3949L39.2348 20.1025Z" fill="#191919"/>
<path d="M32.6878 27.3384L28.9646 23.6153L33.0213 19.5874L37.0503 23.6153L33.0144 27.672L32.6878 27.3384ZM30.308 23.6153L33.0144 26.3216L35.6861 23.6153L33.0144 20.9366L30.308 23.6153Z" fill="#191919"/>
<path d="M23.0715 17.0682L26.7658 13.3462L30.8225 17.4029L26.7658 21.4307L22.7368 17.3948L23.0715 17.0682ZM26.7658 14.6884L24.0594 17.3948L26.7658 20.1024L29.4722 17.3948L26.7658 14.6884Z" fill="#191919"/>
<path d="M33.3407 14.1529L36.5838 17.3948L33.0141 20.9714L29.4375 17.3948L33.0141 13.8193L33.3407 14.1529ZM35.2404 17.3948L33.0141 15.1685L30.7878 17.3948L33.0141 19.6222L35.2404 17.3948Z" fill="#191919"/>
</svg>
